<svg width="19" height="17" viewBox="0 0 19 17" fill="none" xmlns="http://www.w3.org/2000/svg">
<g clip-path="url(#clip0_167_5)">
<path d="M16.7338 16.8582C16.6417 16.8402 16.5497 16.8223 16.4307 16.7962C12.7384 15.6507 9.07303 14.5131 5.40748 13.3761C4.83338 13.198 4.57496 12.8528 4.57373 12.2519C4.57253 11.6681 4.5753 11.0843 4.57283 10.5005C4.56858 9.49719 3.74558 8.67861 2.73949 8.67542C2.32541 8.67411 1.91101 8.66564 1.49731 8.67842C1.0327 8.69277 0.680482 8.52062 0.451434 8.09839C0.426941 8.06652 0.428135 8.01442 0.428062 7.99039C0.425866 7.27056 0.401326 6.57732 0.407677 5.82972C0.408433 5.74064 0.420573 5.70742 0.449756 5.65203C0.659747 5.25343 0.98087 5.06859 1.41571 5.07112C1.82321 5.07349 2.23078 5.07552 2.63823 5.07037C3.75803 5.05623 4.57201 4.23062 4.57337 3.11131C4.57401 2.58834 4.57344 2.06537 4.57335 1.5424C4.57328 1.20716 4.67461 0.909456 4.93183 0.687502C5.0575 0.579063 5.211 0.502883 5.35191 0.412101C5.54097 0.402534 5.73001 0.384873 5.91908 0.384656C7.73921 0.382566 9.55934 0.382806 11.3795 0.38418C11.6102 0.384354 11.841 0.394867 12.1022 0.411298C12.2329 0.431004 12.3332 0.440003 12.4494 0.45256C12.5051 0.464402 12.5447 0.473684 12.5847 0.480825C14.3894 0.803128 15.8164 1.71997 16.8716 3.21499C17.4279 4.00308 17.7591 4.88597 17.9355 5.84695C17.9618 6.04307 17.9908 6.2217 18.0198 6.40033C18.018 6.72746 18.0161 7.05458 18.0091 7.41481C17.9818 7.62867 17.9595 7.80944 17.9318 8.00529C17.578 9.84363 16.6369 11.2768 15.1097 12.3331C14.3583 12.8528 14.2602 13.9006 14.8961 14.5588C15.5046 15.1885 16.125 15.8066 16.743 16.427C16.8489 16.5334 16.9139 16.6384 16.8136 16.7881C16.7794 16.8139 16.7566 16.8361 16.7338 16.8582ZM6.01934 9.81399C8.36207 9.81451 10.7048 9.8151 13.0475 9.81504C13.0877 9.81504 13.1279 9.80729 13.1997 9.81301C13.2434 9.80976 13.287 9.80651 13.3587 9.81401C13.4172 9.80728 13.4757 9.80055 13.5647 9.80282C13.5955 9.7967 13.6263 9.79058 13.6916 9.79122C15.3012 9.6351 16.5003 8.0933 16.2536 6.4969C16.0479 5.16526 14.9165 4.08713 13.6428 4.01133C13.6202 4.01178 13.5976 4.01222 13.5381 4.00218C12.1183 3.99918 10.6984 3.99463 9.2786 3.99367C8.1237 3.99289 6.96851 3.98126 5.81397 4.0026C4.80102 4.02132 3.99255 4.85735 3.97708 5.87108C3.96733 6.50955 3.96681 7.14843 3.97719 7.78687C3.99482 8.87068 4.84906 9.753 5.93492 9.80947C5.95241 9.80706 5.9699 9.80465 6.01934 9.81399Z" fill="#1E1E1E"/>
<path d="M13.1475 9.7638C13.1073 9.76794 13.0877 9.81507 13.0475 9.81507C10.7048 9.81513 8.26966 9.81736 5.91059 9.79776C5.87868 9.76311 5.94722 9.7386 5.93166 9.72303C6.0132 9.72303 5.92038 9.7749 5.91059 9.79776C4.84906 9.75303 3.99482 8.87071 3.9772 7.7869C3.96681 7.14846 3.96734 6.50958 3.97708 5.87111C3.99255 4.85737 4.80102 4.02135 5.81397 4.00262C6.96851 3.98129 8.1237 3.99292 9.2786 3.9937C10.6984 3.99466 12.1183 3.99921 13.5595 4.01797C13.6075 4.03117 13.6341 4.02861 13.6607 4.02605C14.9165 4.08716 16.0479 5.16529 16.2536 6.49693C16.5003 8.09333 15.3012 9.63513 13.6715 9.77439C13.3309 9.84534 13.5508 9.70896 13.5342 9.79385C13.4757 9.80058 13.0695 9.82712 12.9957 9.81507C12.9497 9.77282 13.2086 9.72303 13.2086 9.78419C13.186 9.81657 12.8825 9.78419 13.1475 9.7638ZM7.86736 6.05287C7.34842 5.6613 6.71363 5.6932 6.30499 6.13137C5.87977 6.58731 5.90155 7.29428 6.35403 7.7238C6.80426 8.15118 7.51196 8.13179 7.9467 7.68016C8.37716 7.23298 8.3521 6.53449 7.86736 6.05287ZM13.7113 7.86515C14.1105 7.60249 14.3025 7.23321 14.2408 6.75785C14.1814 6.30075 13.9161 5.98721 13.4831 5.83561C12.9878 5.6622 12.454 5.86138 12.1689 6.30531C11.8971 6.72869 11.9543 7.3015 12.3063 7.6787C12.6609 8.05876 13.1973 8.13708 13.7113 7.86515Z" fill="#F4F4F4"/>
<path d="M7.87822 6.06277C8.35212 6.53447 8.37718 7.23297 7.94673 7.68014C7.51199 8.13177 6.80429 8.15116 6.35406 7.72378C5.90157 7.29427 5.8798 6.58729 6.30501 6.13136C6.71366 5.69318 7.34845 5.66129 7.87822 6.06277Z" fill="#1E1E1E"/>
<path d="M13.6982 7.87258C13.1973 8.13708 12.6609 8.05876 12.3063 7.6787C11.9543 7.3015 11.8971 6.72869 12.1689 6.30531C12.454 5.86138 12.9878 5.6622 13.4831 5.83562C13.9161 5.98721 14.1814 6.30075 14.2408 6.75786C14.3025 7.23322 14.1105 7.6025 13.6982 7.87258Z" fill="#1E1E1E"/>
</g>
<defs>
<clipPath id="clip0_167_5">
<rect width="18.3453" height="17" fill="white"/>
</clipPath>
</defs>
</svg>
