<svg width="199" height="45" viewBox="0 0 199 45" fill="none" xmlns="http://www.w3.org/2000/svg">
<path d="M52.9362 44V16.9561H64.7969C66.4968 16.9561 68.0421 17.3296 69.433 18.0765C70.8238 18.7977 71.9313 19.8279 72.7555 21.1672C73.5797 22.4808 73.9918 24.0261 73.9918 25.8033C73.9918 27.6062 73.5282 29.2031 72.601 30.594C71.6995 31.959 70.4761 32.9764 68.9307 33.646L71.8283 39.5184C72.0343 39.9305 72.2533 40.2396 72.4851 40.4457C72.7426 40.626 73.1032 40.7161 73.5668 40.7161H75.4985V44H72.9873C71.9828 44 71.0942 43.7424 70.3216 43.2273C69.5746 42.7122 68.9565 42.0168 68.4671 41.1411L65.2219 34.5346C64.9643 34.5604 64.681 34.5861 64.3719 34.6119C64.0886 34.6119 63.7924 34.6119 63.4833 34.6119H56.6451V44H52.9362ZM56.6451 31.328H64.2946C65.4021 31.328 66.4066 31.1091 67.3081 30.6712C68.2353 30.2334 68.9565 29.6023 69.4716 28.7781C70.0125 27.954 70.2829 26.9623 70.2829 25.8033C70.2829 24.6185 70.0125 23.614 69.4716 22.7899C68.9307 21.9657 68.2096 21.3346 67.3081 20.8968C66.4066 20.4589 65.415 20.24 64.3333 20.24H56.6451V31.328ZM88.2375 44.4636C86.4604 44.4636 84.8635 44.103 83.4469 43.3819C82.0561 42.6349 80.9614 41.6047 80.163 40.2911C79.3903 38.9776 79.004 37.4451 79.004 35.6937V24.2966H82.597V35.655C82.597 36.8398 82.8545 37.87 83.3696 38.7458C83.8848 39.5957 84.5673 40.2525 85.4172 40.7161C86.293 41.1797 87.2202 41.4115 88.1989 41.4115C89.2034 41.4115 90.1306 41.1797 90.9806 40.7161C91.8563 40.2525 92.5517 39.5957 93.0668 38.7458C93.6077 37.87 93.8781 36.8398 93.8781 35.655V24.2966H97.4711V35.6937C97.4711 37.4451 97.0719 38.9776 96.2734 40.2911C95.475 41.6047 94.3804 42.6349 92.9895 43.3819C91.5987 44.103 90.0147 44.4636 88.2375 44.4636ZM113.08 44.4636C111.174 44.4636 109.461 44.0515 107.942 43.2273C106.422 42.4031 105.212 41.2183 104.31 39.673C103.435 38.1019 102.997 36.2217 102.997 34.0324V15.7971H106.551V27.8123H106.628C107.066 27.0139 107.633 26.3184 108.328 25.726C109.049 25.1337 109.861 24.67 110.762 24.3352C111.689 24.0004 112.655 23.833 113.66 23.833C115.488 23.833 117.124 24.2451 118.566 25.0693C120.009 25.8935 121.142 27.0654 121.966 28.585C122.816 30.0788 123.241 31.856 123.241 33.9165C123.241 35.5391 122.983 37.0072 122.468 38.3208C121.979 39.6086 121.284 40.7161 120.382 41.6433C119.481 42.5705 118.412 43.2788 117.175 43.7682C115.939 44.2318 114.574 44.4636 113.08 44.4636ZM113.08 41.4115C114.291 41.4115 115.385 41.1153 116.364 40.5229C117.369 39.9305 118.167 39.0935 118.759 38.0117C119.352 36.93 119.648 35.6421 119.648 34.1483C119.648 32.706 119.352 31.4439 118.759 30.3621C118.193 29.2804 117.42 28.4304 116.441 27.8123C115.463 27.1941 114.355 26.8851 113.119 26.8851C111.908 26.8851 110.801 27.1813 109.796 27.7737C108.818 28.366 108.032 29.216 107.44 30.3235C106.873 31.4053 106.59 32.6931 106.59 34.1869C106.59 35.655 106.873 36.93 107.44 38.0117C108.032 39.0935 108.818 39.9305 109.796 40.5229C110.801 41.1153 111.895 41.4115 113.08 41.4115ZM127.787 44V32.6029C127.787 30.8515 128.173 29.319 128.946 28.0055C129.745 26.6919 130.839 25.6745 132.23 24.9534C133.621 24.2064 135.205 23.833 136.982 23.833C138.785 23.833 140.369 24.2064 141.734 24.9534C143.125 25.6745 144.207 26.6919 144.979 28.0055C145.778 29.319 146.177 30.8515 146.177 32.6029V44H142.623V32.6416C142.623 31.4568 142.352 30.4394 141.811 29.5895C141.296 28.7138 140.601 28.0441 139.725 27.5805C138.875 27.1169 137.961 26.8851 136.982 26.8851C136.003 26.8851 135.076 27.1169 134.2 27.5805C133.35 28.0441 132.655 28.7138 132.114 29.5895C131.599 30.4394 131.341 31.4568 131.341 32.6416V44H127.787ZM151.82 44V24.2966H155.413V44H151.82ZM153.636 21.1672C152.992 21.1672 152.426 20.9354 151.936 20.4718C151.473 19.9824 151.241 19.4158 151.241 18.7719C151.241 18.128 151.473 17.5742 151.936 17.1106C152.426 16.6213 152.992 16.3766 153.636 16.3766C154.28 16.3766 154.834 16.6213 155.297 17.1106C155.787 17.5742 156.031 18.128 156.031 18.7719C156.031 19.4158 155.787 19.9824 155.297 20.4718C154.834 20.9354 154.28 21.1672 153.636 21.1672ZM161.026 44V15.7971H164.58V32.5643H169.989L175.166 24.2966H179.107L173.505 33.1052C175.359 33.646 176.802 34.6634 177.832 36.1573C178.888 37.6254 179.416 39.3381 179.416 41.2956V44H175.823V41.2956C175.823 40.2139 175.578 39.248 175.089 38.398C174.625 37.5481 173.969 36.8784 173.119 36.3891C172.269 35.874 171.29 35.6164 170.182 35.6164H164.58V44H161.026Z" fill="#1E1E1E"/>
<path d="M34.6619 43.9196C34.4712 43.8824 34.2805 43.8452 34.0341 43.7913C26.3859 41.4185 18.7936 39.062 11.2009 36.7068C10.0117 36.338 9.47645 35.6229 9.47389 34.3782C9.47141 33.1689 9.47716 31.9596 9.47204 30.7504C9.46324 28.6722 7.75849 26.9766 5.67451 26.97C4.81679 26.9673 3.95842 26.9498 3.10149 26.9762C2.13912 27.006 1.40953 26.6494 0.935088 25.7748C0.884353 25.7088 0.886827 25.6009 0.886675 25.5511C0.882127 24.06 0.831296 22.6241 0.84445 21.0755C0.846017 20.891 0.871164 20.8222 0.931612 20.7075C1.36658 19.8818 2.03175 19.4989 2.93247 19.5042C3.77655 19.5091 4.62078 19.5133 5.46476 19.5026C7.78427 19.4733 9.47034 17.7632 9.47316 15.4447C9.47447 14.3614 9.4733 13.2782 9.4731 12.1949C9.47297 11.5005 9.68286 10.8838 10.2157 10.4241C10.476 10.1995 10.7939 10.0417 11.0858 9.85362C11.4774 9.8338 11.869 9.79722 12.2606 9.79677C16.0308 9.79244 19.801 9.79293 23.5711 9.79578C24.0491 9.79614 24.5271 9.81792 25.0681 9.85195C25.3389 9.89277 25.5467 9.91141 25.7874 9.93742C25.9027 9.96195 25.9847 9.98117 26.0676 9.99597C29.8058 10.6636 32.7617 12.5627 34.9474 15.6594C36.0996 17.2919 36.7858 19.1207 37.151 21.1112C37.2055 21.5174 37.2656 21.8875 37.3258 22.2575C37.3219 22.9351 37.3181 23.6127 37.3036 24.3588C37.247 24.8018 37.2008 25.1763 37.1434 25.5819C36.4105 29.3898 34.4611 32.3585 31.2978 34.5464C29.7414 35.6229 29.5382 37.7933 30.8555 39.1567C32.1157 40.4611 33.4009 41.7414 34.681 43.0265C34.9004 43.2467 35.035 43.4644 34.8273 43.7744C34.7564 43.8279 34.7092 43.8738 34.6619 43.9196ZM12.4683 29.3284C17.321 29.3295 22.1736 29.3307 27.0263 29.3306C27.1095 29.3306 27.1928 29.3146 27.3416 29.3264C27.4319 29.3197 27.5223 29.3129 27.6708 29.3285C27.792 29.3145 27.9132 29.3006 28.0975 29.3053C28.1613 29.2926 28.2251 29.28 28.3603 29.2813C31.6945 28.9579 34.1783 25.7642 33.6673 22.4575C33.2412 19.6992 30.8976 17.466 28.2592 17.309C28.2124 17.3099 28.1656 17.3108 28.0424 17.29C25.1014 17.2838 22.1604 17.2744 19.2194 17.2724C16.8272 17.2708 14.4344 17.2467 12.0429 17.2909C9.9447 17.3296 8.27006 19.0614 8.23801 21.1612C8.21782 22.4837 8.21674 23.8071 8.23825 25.1295C8.27476 27.3745 10.0442 29.2021 12.2934 29.3191C12.3297 29.3141 12.3659 29.3091 12.4683 29.3284Z" fill="#1E1E1E"/>
<path d="M27.2333 29.2244C27.15 29.233 27.1095 29.3306 27.0262 29.3306C22.1736 29.3308 17.1295 29.3354 12.243 29.2948C12.1769 29.223 12.3189 29.1722 12.2867 29.14C12.4555 29.14 12.2633 29.2474 12.243 29.2948C10.0442 29.2021 8.27474 27.3745 8.23823 25.1295C8.21672 23.8071 8.2178 22.4837 8.23799 21.1612C8.27004 19.0614 9.94468 17.3297 12.0429 17.2909C14.4344 17.2467 16.8272 17.2708 19.2194 17.2724C22.1604 17.2744 25.1014 17.2838 28.0868 17.3227C28.1862 17.35 28.2412 17.3447 28.2963 17.3394C30.8976 17.466 33.2411 19.6992 33.6673 22.4575C34.1782 25.7643 31.6945 28.9579 28.3189 29.2464C27.6133 29.3933 28.0687 29.1108 28.0343 29.2867C27.9132 29.3006 27.0717 29.3556 26.9189 29.3306C26.8235 29.2431 27.36 29.14 27.36 29.2667C27.3132 29.3337 26.6844 29.2667 27.2333 29.2244ZM16.2962 21.5377C15.2213 20.7266 13.9064 20.7927 13.0599 21.7003C12.1792 22.6447 12.2243 24.1091 13.1615 24.9988C14.0941 25.8841 15.5601 25.8439 16.4606 24.9084C17.3522 23.9822 17.3003 22.5353 16.2962 21.5377ZM28.4012 25.2916C29.2281 24.7476 29.6258 23.9826 29.4979 22.998C29.3749 22.0512 28.8254 21.4017 27.9285 21.0877C26.9025 20.7285 25.7969 21.1411 25.2064 22.0606C24.6432 22.9376 24.7619 24.1241 25.4908 24.9054C26.2253 25.6927 27.3366 25.8549 28.4012 25.2916Z" fill="#F4F4F4"/>
<path d="M16.3187 21.5582C17.3003 22.5353 17.3522 23.9822 16.4606 24.9084C15.5601 25.8439 14.0942 25.8841 13.1616 24.9988C12.2243 24.1091 12.1792 22.6447 13.06 21.7003C13.9065 20.7927 15.2213 20.7266 16.3187 21.5582Z" fill="#1E1E1E"/>
<path d="M28.3741 25.3071C27.3366 25.8549 26.2254 25.6927 25.4909 24.9055C24.7619 24.1241 24.6433 22.9376 25.2064 22.0606C25.7969 21.1411 26.9025 20.7285 27.9286 21.0877C28.8255 21.4017 29.3749 22.0512 29.498 22.998C29.6259 23.9827 29.2282 24.7476 28.3741 25.3071Z" fill="#1E1E1E"/>
</svg>
